<svg width="839" height="625" viewBox="0 0 839 625" fill="none" xmlns="http://www.w3.org/2000/svg">
<path d="M30 241V369.5M101.5 163.5V467M186.5 94V529.5M650 94V529.5M733.5 163.5V467M808.5 241V369.5" stroke="white" stroke-width="60" stroke-linecap="round"/>
<mask id="path-2-outside-1_1_13" maskUnits="userSpaceOnUse" x="318" y="130" width="203" height="408" fill="black">
<rect fill="white" x="318" y="130" width="203" height="408"/>
<path d="M446.5 500V166.75H513.25C517.417 166.75 519.5 168.833 519.5 173V247C519.5 250.5 518.25 253 515.75 254.5L468.5 283.25V296.25L515.75 333.75C517.083 334.75 518 335.917 518.5 337.25C519.167 338.417 519.5 339.917 519.5 341.75V450.5C519.5 453.667 518.333 456.167 516 458L458.5 497C457.5 497.667 456.25 498.333 454.75 499C453.417 499.667 452.083 500 450.75 500H446.5ZM325.75 500C321.583 500 319.5 497.917 319.5 493.75V423.25C319.5 421.25 319.583 419.667 319.75 418.5C320.083 417.167 321.083 416 322.75 415L367.75 384.5V372L323.5 344.5C320.833 343 319.5 340.5 319.5 337V224.5C319.5 221.833 319.667 219.917 320 218.75C320.333 217.417 321.5 216 323.5 214.5L381.5 170C383 169 384.5 168.25 386 167.75C387.5 167.083 389.333 166.75 391.5 166.75H392.25V500H325.75ZM415.25 536.75C411.083 536.75 409 534.667 409 530.5V138C409 133.833 411.083 131.75 415.25 131.75H423.5C427.667 131.75 429.75 133.833 429.75 138V530.5C429.75 534.667 427.667 536.75 423.5 536.75H415.25Z"/>
</mask>
<path d="M446.5 500V166.75H513.25C517.417 166.75 519.5 168.833 519.5 173V247C519.5 250.5 518.25 253 515.75 254.5L468.5 283.25V296.25L515.75 333.75C517.083 334.75 518 335.917 518.5 337.25C519.167 338.417 519.5 339.917 519.5 341.75V450.5C519.5 453.667 518.333 456.167 516 458L458.5 497C457.5 497.667 456.25 498.333 454.75 499C453.417 499.667 452.083 500 450.75 500H446.5ZM325.75 500C321.583 500 319.5 497.917 319.5 493.75V423.25C319.5 421.25 319.583 419.667 319.75 418.5C320.083 417.167 321.083 416 322.75 415L367.75 384.5V372L323.5 344.5C320.833 343 319.5 340.5 319.5 337V224.5C319.5 221.833 319.667 219.917 320 218.75C320.333 217.417 321.5 216 323.5 214.5L381.5 170C383 169 384.5 168.25 386 167.75C387.5 167.083 389.333 166.75 391.5 166.75H392.25V500H325.75ZM415.25 536.75C411.083 536.75 409 534.667 409 530.5V138C409 133.833 411.083 131.75 415.25 131.75H423.5C427.667 131.75 429.75 133.833 429.75 138V530.5C429.75 534.667 427.667 536.75 423.5 536.75H415.25Z" fill="white"/>
<path d="M446.5 500H445.5V501H446.5V500ZM446.5 166.75V165.75H445.5V166.75H446.5ZM515.75 254.5L515.236 253.642L515.23 253.646L515.75 254.5ZM468.5 283.25L467.98 282.396L467.5 282.688V283.25H468.5ZM468.5 296.25H467.5V296.733L467.878 297.033L468.5 296.25ZM515.75 333.75L515.128 334.533L515.139 334.542L515.15 334.55L515.75 333.75ZM518.5 337.25L517.564 337.601L517.592 337.676L517.632 337.746L518.5 337.25ZM516 458L516.561 458.828L516.59 458.808L516.618 458.786L516 458ZM458.5 497L459.055 497.832L459.061 497.828L458.5 497ZM454.75 499L454.344 498.086L454.323 498.095L454.303 498.106L454.75 499ZM319.75 418.5L318.78 418.257L318.767 418.308L318.76 418.359L319.75 418.5ZM322.75 415L323.264 415.857L323.288 415.843L323.311 415.828L322.75 415ZM367.75 384.5L368.311 385.328L368.75 385.03V384.5H367.75ZM367.75 372H368.75V371.444L368.278 371.151L367.75 372ZM323.5 344.5L324.028 343.651L324.009 343.639L323.99 343.628L323.5 344.5ZM320 218.75L320.962 219.025L320.966 219.009L320.97 218.993L320 218.75ZM323.5 214.5L324.1 215.3L324.109 215.293L323.5 214.5ZM381.5 170L380.945 169.168L380.918 169.186L380.891 169.207L381.5 170ZM386 167.75L386.316 168.699L386.362 168.683L386.406 168.664L386 167.75ZM392.25 166.75H393.25V165.75H392.25V166.75ZM392.25 500V501H393.25V500H392.25ZM447.5 500V166.75H445.5V500H447.5ZM446.5 167.75H513.25V165.75H446.5V167.75ZM513.25 167.75C515.179 167.75 516.442 168.232 517.23 169.02C518.018 169.808 518.5 171.071 518.5 173H520.5C520.5 170.763 519.94 168.901 518.645 167.605C517.349 166.31 515.487 165.75 513.25 165.75V167.75ZM518.5 173V247H520.5V173H518.5ZM518.5 247C518.5 250.231 517.37 252.362 515.236 253.642L516.265 255.357C519.13 253.638 520.5 250.769 520.5 247H518.5ZM515.23 253.646L467.98 282.396L469.02 284.104L516.27 255.354L515.23 253.646ZM467.5 283.25V296.25H469.5V283.25H467.5ZM467.878 297.033L515.128 334.533L516.372 332.967L469.122 295.467L467.878 297.033ZM515.15 334.55C516.357 335.455 517.141 336.475 517.564 337.601L519.436 336.899C518.859 335.358 517.809 334.045 516.35 332.95L515.15 334.55ZM517.632 337.746C518.186 338.716 518.5 340.03 518.5 341.75H520.5C520.5 339.803 520.147 338.117 519.368 336.754L517.632 337.746ZM518.5 341.75V450.5H520.5V341.75H518.5ZM518.5 450.5C518.5 453.384 517.456 455.584 515.382 457.214L516.618 458.786C519.211 456.749 520.5 453.95 520.5 450.5H518.5ZM515.439 457.172L457.939 496.172L459.061 497.828L516.561 458.828L515.439 457.172ZM457.945 496.168C457.006 496.794 455.809 497.435 454.344 498.086L455.156 499.914C456.691 499.232 457.994 498.539 459.055 497.832L457.945 496.168ZM454.303 498.106C453.092 498.711 451.911 499 450.75 499V501C452.256 501 453.742 500.622 455.197 499.894L454.303 498.106ZM450.75 499H446.5V501H450.75V499ZM325.75 499C323.821 499 322.558 498.518 321.77 497.73C320.982 496.942 320.5 495.679 320.5 493.75H318.5C318.5 495.987 319.06 497.849 320.355 499.145C321.651 500.44 323.513 501 325.75 501V499ZM320.5 493.75V423.25H318.5V493.75H320.5ZM320.5 423.25C320.5 421.27 320.583 419.74 320.74 418.641L318.76 418.359C318.584 419.593 318.5 421.23 318.5 423.25H320.5ZM320.72 418.743C320.966 417.757 321.73 416.778 323.264 415.857L322.236 414.143C320.437 415.222 319.2 416.576 318.78 418.257L320.72 418.743ZM323.311 415.828L368.311 385.328L367.189 383.672L322.189 414.172L323.311 415.828ZM368.75 384.5V372H366.75V384.5H368.75ZM368.278 371.151L324.028 343.651L322.972 345.349L367.222 372.849L368.278 371.151ZM323.99 343.628C321.69 342.334 320.5 340.201 320.5 337H318.5C318.5 340.799 319.977 343.666 323.01 345.372L323.99 343.628ZM320.5 337V224.5H318.5V337H320.5ZM320.5 224.5C320.5 221.843 320.669 220.047 320.962 219.025L319.038 218.475C318.664 219.786 318.5 221.824 318.5 224.5H320.5ZM320.97 218.993C321.218 218.002 322.151 216.762 324.1 215.3L322.9 213.7C320.849 215.238 319.449 216.831 319.03 218.507L320.97 218.993ZM324.109 215.293L382.109 170.793L380.891 169.207L322.891 213.707L324.109 215.293ZM382.055 170.832C383.491 169.875 384.911 169.167 386.316 168.699L385.684 166.801C384.089 167.333 382.509 168.125 380.945 169.168L382.055 170.832ZM386.406 168.664C387.744 168.069 389.431 167.75 391.5 167.75V165.75C389.236 165.75 387.256 166.098 385.594 166.836L386.406 168.664ZM391.5 167.75H392.25V165.75H391.5V167.75ZM391.25 166.75V500H393.25V166.75H391.25ZM392.25 499H325.75V501H392.25V499ZM415.25 535.75C413.321 535.75 412.058 535.268 411.27 534.48C410.482 533.692 410 532.429 410 530.5H408C408 532.737 408.56 534.599 409.855 535.895C411.151 537.19 413.013 537.75 415.25 537.75V535.75ZM410 530.5V138H408V530.5H410ZM410 138C410 136.071 410.482 134.808 411.27 134.02C412.058 133.232 413.321 132.75 415.25 132.75V130.75C413.013 130.75 411.151 131.31 409.855 132.605C408.56 133.901 408 135.763 408 138H410ZM415.25 132.75H423.5V130.75H415.25V132.75ZM423.5 132.75C425.429 132.75 426.692 133.232 427.48 134.02C428.268 134.808 428.75 136.071 428.75 138H430.75C430.75 135.763 430.19 133.901 428.895 132.605C427.599 131.31 425.737 130.75 423.5 130.75V132.75ZM428.75 138V530.5H430.75V138H428.75ZM428.75 530.5C428.75 532.429 428.268 533.692 427.48 534.48C426.692 535.268 425.429 535.75 423.5 535.75V537.75C425.737 537.75 427.599 537.19 428.895 535.895C430.19 534.599 430.75 532.737 430.75 530.5H428.75ZM423.5 535.75H415.25V537.75H423.5V535.75Z" fill="white" mask="url(#path-2-outside-1_1_13)"/>
<path d="M211.5 333H257.5" stroke="white" stroke-width="58" stroke-linecap="round"/>
<path d="M628 335.5H570" stroke="white" stroke-width="58" stroke-linecap="round"/>
</svg>
